# xmcd CD database file
#
# Track frame offsets:
#	150
#	37765
#	67749
#	71088
#	105535
#	108408
#	137448
#	170077
#	172047
#
# Disc length: 3243 seconds
#
# Revision: 0
# Processed by: cddbd v1.5.1PL2 Copyright (c) Steve Scherf et al.
# Submitted via: CDex 1.51
#
DISCID=730ca909
DTITLE=John Butler Trio - 2004-03-11 - Belly Up Tavern
DYEAR=2004
DGENRE=Blues
TTITLE0=John Butler Trio - Treat Your Momma
TTITLE1=John Butler Trio - Hello
TTITLE2=John Butler Trio - Seeing Angels Intro
TTITLE3=John Butler Trio - Seeing Angels
TTITLE4=John Butler Trio - Bound To Ramble Intro 1
TTITLE5=John Butler Trio - Bound To Ramble Intro
TTITLE6=John Butler Trio - Bound To Ramble
TTITLE7=John Butler Trio - What You Want
TTITLE8=John Butler Trio - Valley Intro
EXTD=YEAR: 2004
EXTT0=
EXTT1=
EXTT2=
EXTT3=
EXTT4=
EXTT5=
EXTT6=
EXTT7=
EXTT8=
PLAYORDER=
